<svg xmlns="http://www.w3.org/2000/svg" xmlns:xlink="http://www.w3.org/1999/xlink" width="553.042" height="424.834" viewBox="0 0 553.042 424.834"><defs><style>.a,.h,.i{fill:#6c63ff;}.a,.c,.r{opacity:0.1;}.b{fill:#c8cad7;}.d{fill:#474157;}.e{fill:#4c4c78;}.f{fill:#fff;}.g{fill:#ededf4;}.i,.j,.s{opacity:0.5;}.j,.t{fill:#dce0ed;}.k{fill:url(#a);}.l{fill:#65617d;}.m{fill:#a27772;}.n{fill:#fbbebe;}.o{fill:#ff748e;}.p{opacity:0.05;}.q{fill:#7c5c5c;}.u{fill:#cac9e2;}.v{fill:#ffd037;}.w{fill:#a8a8a8;}.x{opacity:0.2;}</style><linearGradient id="a" x1="0.735" y1="-1.049" x2="0.735" y2="-0.049" gradientUnits="objectBoundingBox"><stop offset="0" stop-color="gray" stop-opacity="0.251"/><stop offset="0.54" stop-color="gray" stop-opacity="0.122"/><stop offset="1" stop-color="gray" stop-opacity="0.102"/></linearGradient></defs><g transform="translate(0 -0.05)"><path class="a" d="M588.051,96.764A113.162,113.162,0,0,0,566.11,67.213L261.761,64.678,512.343,34.926A165.122,165.122,0,0,0,461.5,26.4C437.379,9.931,406.374.05,372.555.05c-30.344,0-58.4,7.973-81.278,21.5A163.222,163.222,0,0,0,226.131,8.282c-67.623,0-123.969,39.594-136.611,92.1Z" transform="translate(-45.707 0)"/><path class="a" d="M553.042,244.281a96.418,96.418,0,0,0-9.485-41.561L16.082,249.528A102.56,102.56,0,0,0,3.724,275.912L167.068,296.5,0,311.5c5.026,59.445,65.3,106.38,138.936,106.38,37.064,0,70.74-11.893,95.7-31.288,25.034,19.763,59.034,31.915,96.5,31.915,55.583,0,103.561-26.756,125.9-65.44,44.821-12.03,79.638-42.227,91.555-80.005L342.02,245.98H553.042Z" transform="translate(0 -103.48)"/><ellipse class="a" cx="141.921" cy="6.333" rx="141.921" ry="6.333" transform="translate(102.778 412.218)"/><path class="b" d="M554.018,761.47V765.3H440.84V762.19a37.2,37.2,0,0,0,2.56-68.7h109.85a37.2,37.2,0,0,0,.768,67.98Z" transform="translate(-225.085 -354.058)"/><path class="c" d="M555.925,693.49a37.25,37.25,0,0,0-20.556,24.662H466.636A37.258,37.258,0,0,0,446.08,693.49Z" transform="translate(-227.761 -354.058)"/><path class="b" d="M176,653.65v21.485c0,11.863,8.682,21.481,19.4,21.481h333.01c10.713,0,19.4-9.617,19.4-21.481V653.65Z" transform="translate(-89.862 -333.717)"/><path class="c" d="M554.018,828.29v3.827H440.84v-3.108a37.19,37.19,0,0,0,8.726-4.649h97.512A37.374,37.374,0,0,0,554.018,828.29Z" transform="translate(-225.085 -420.878)"/><rect class="b" width="187.98" height="11.34" rx="5.67" transform="translate(178.354 404.676)"/><path class="d" d="M547.8,152.416a19.391,19.391,0,0,0-19.4-19.366H195.41A19.391,19.391,0,0,0,176,152.416v239.6H547.8Z" transform="translate(-89.862 -67.907)"/><path class="e" d="M548.279,180.339V386.222a9.543,9.543,0,0,1-9.539,9.549H206.309a9.544,9.544,0,0,1-9.549-9.539V180.339a9.549,9.549,0,0,1,9.549-9.549h332.4a9.549,9.549,0,0,1,9.573,9.524Z" transform="translate(-100.462 -87.177)"/><circle class="f" cx="4.478" cy="4.478" r="4.478" transform="translate(267.565 69.885)"/><circle class="f" cx="11.041" cy="11.041" r="11.041" transform="translate(261.002 331.273)"/><path class="f" d="M271.039,180.55v220.2h-64.73a9.544,9.544,0,0,1-9.549-9.539V185.322l.347-1.3.93-3.475Z" transform="translate(-100.462 -92.16)"/><path class="e" d="M279.344,187.65v19.821H196.76V188.947l.347-1.3Z" transform="translate(-100.462 -95.785)"/><path class="b" d="M548.279,180.344H196.76A9.543,9.543,0,0,1,206.3,170.8h332.4a9.543,9.543,0,0,1,9.573,9.514Z" transform="translate(-100.462 -87.182)"/><circle class="g" cx="2.388" cy="2.388" r="2.388" transform="translate(103.458 86.002)"/><circle class="g" cx="2.388" cy="2.388" r="2.388" transform="translate(110.618 86.002)"/><circle class="g" cx="2.388" cy="2.388" r="2.388" transform="translate(117.778 86.002)"/><rect class="h" width="49.593" height="4.566" transform="translate(108.641 100.591)"/><rect class="i" width="49.593" height="4.566" transform="translate(108.641 122.86)"/><rect class="i" width="49.593" height="4.566" transform="translate(108.641 138.604)"/><rect class="i" width="49.593" height="4.566" transform="translate(108.641 154.349)"/><rect class="i" width="49.593" height="4.566" transform="translate(108.641 170.088)"/><rect class="i" width="49.593" height="4.566" transform="translate(108.641 185.833)"/><rect class="i" width="49.593" height="4.566" transform="translate(108.641 201.578)"/><rect class="i" width="49.593" height="4.566" transform="translate(108.641 217.317)"/><rect class="j" width="219.753" height="0.734" transform="translate(211.179 117.383)"/><rect class="j" width="219.753" height="0.734" transform="translate(211.179 134.429)"/><rect class="j" width="219.753" height="0.734" transform="translate(211.179 151.481)"/><rect class="j" width="219.753" height="0.734" transform="translate(211.179 168.527)"/><rect class="j" width="219.753" height="0.734" transform="translate(211.179 185.574)"/><path class="i" d="M650.968,319.549H430.94V286.024l20.179,9.945L472,298.8l18.324-5.526,22.107-17.144,11.12-6.421,8.129-1.566,7.777.416,12.793,6.318,17.384,11.076,13.645,1.757,10.821-3.729,22.929-18.784,11.707-4.175,12.25,1.894,9.979,5.76Z" transform="translate(-220.03 -133.247)"/><path class="h" d="M469.291,298.7c-19.812,0-38.126-12.118-38.351-12.275l.543-.812c.284.191,28.465,18.838,52.412,9.495,8.741-3.4,14.947-8.7,20.976-13.821,6.279-5.349,12.211-10.4,20.291-12.6a30.356,30.356,0,0,1,27.1,6.088c6.578,5.408,19.684,14.1,33.53,11.5,7.057-1.321,13.009-6.48,19.308-11.937,12.059-10.474,24.569-21.285,46.147-5.76l-.573.793c-20.971-15.069-33.163-4.508-44.948,5.707-6.4,5.55-12.451,10.767-19.768,12.162-14.242,2.667-27.623-6.186-34.333-11.7a29.386,29.386,0,0,0-26.223-5.9c-7.875,2.134-13.7,7.116-19.914,12.392-6.074,5.173-12.358,10.527-21.241,13.992A41.058,41.058,0,0,1,469.291,298.7Z" transform="translate(-220.03 -133.135)"/><circle class="h" cx="5.447" cy="5.447" r="5.447" transform="translate(311.475 129.349)"/><path class="k" d="M298.32,475.991a86.462,86.462,0,0,0-10.278-5.354l-.152-.108a6.2,6.2,0,0,1-1.879-2.374v-.44c.122-2.271,1.733-4.331,3.264-6.132q1.958-2.305,3.915-4.605a4.5,4.5,0,0,0,1.008-1.635,3.664,3.664,0,0,0,.108-.979v-.4c0-1.145-.054-2.29-.093-3.426-.039-1-.294-2.261-1.3-2.447-.519-.108-1.2.078-1.468-.367a.824.824,0,0,1-.069-.592v.044a.248.248,0,0,1,0-.054,13.529,13.529,0,0,0,.372-2.354,3.381,3.381,0,0,0-.162-1.189c-.582-1.659-2.574-2.339-4.336-2.653s-3.739-.582-4.845-1.958a15.993,15.993,0,0,0-.979-1.326,3.853,3.853,0,0,0-1.806-.891,10.142,10.142,0,0,0-6.548.573,5.9,5.9,0,0,1-2.643.837c-.935-.054-1.8-.734-2.76-.9a3.941,3.941,0,0,0-3.793,2.222,5.386,5.386,0,0,0-.7,2.618v.152h0a3.847,3.847,0,0,0,1.008,2.672c.666.7,1.659,1.17,1.958,2.08.113.372.088.773.186,1.145a.528.528,0,0,0,.044.142l-.054.064a11.635,11.635,0,0,0-2.447,7.155,11.873,11.873,0,0,0,8.32,11.257v.352a5.061,5.061,0,0,1-1.615,3.94L260.018,475.3s-6.362-.754-8.653,8.54a15.74,15.74,0,0,0-.392,4.713,13.836,13.836,0,0,1-1.742,7.062c-2.609,5.109-2.016,16.831,3.318,17.991,5.036,1.1,7.008.641,7.214.587v.206c-.083,2.2-.881,21.172-3.783,23.492-.808.631-.656,1.062,0,1.351v.343c-.088,1.39-.538,6.671-2.481,9.681-2.232,3.47-1.977,23.536-1.977,23.536l-1.537,11.839s.945,7.312,0,8.589c-.847,1.14-1.958,28.2-2.212,34.059h-.1a2.853,2.853,0,0,0-2.281,1.39c-1.263,2.026-5.619,5.76-5.619,5.76-.945,1.346-4.449,2.633-6.3,3.24a3.994,3.994,0,0,0-.715.308,3.76,3.76,0,0,0-1.591,1.674,1.791,1.791,0,0,0-.166,1.395c.489,1.16,10.312,1.958,12.8.812,1.958-.91,9.71-2.114,12.93-2.584a2.653,2.653,0,0,0,2.3-2.3,1.518,1.518,0,0,0-.294-1.15h0c-.617-.763-.935-2.848-1.077-4.209a2.863,2.863,0,0,0,.724-.431,30.878,30.878,0,0,1,1.777-12.421c2.369-6.265,3.083-17.874,2.491-25.42,0,0,7.229-31.112,12.921-34.015h0c.088.108,2.848,3.651,3.2,14.624a44.346,44.346,0,0,0,4.38,18.456s-1.777,18.921,0,26l-2.335,11.154a3.614,3.614,0,0,1-.279-.254s.069.313.166.807l-.049.235.1.024a21.585,21.585,0,0,1,.489,5.256c-.093.817-.318,1.928-.489,3.025-.245,1.718-.313,3.387.592,3.749,1.468.6,10.195,1.414,11.677-.489a2.746,2.746,0,0,0,.431-2.868,2.929,2.929,0,0,0-.431-.729s-2.315-3.783-1.659-6.451a1.957,1.957,0,0,0-.279-1.527,78.836,78.836,0,0,1,2.031-12.524c1.468-5.584,4.61-17.829,2.31-25.885h0c-.088-.313-.186-.626-.294-.93a34.746,34.746,0,0,1-1.307-13.581,27.61,27.61,0,0,1,0-11.839c1.409-6.495,2.4-12.857,2.4-12.857s.783-8.589.1-13.855l-.044-.338.372-.083s-2.012-8.937-2.726-14.624c-.166-1.346-.387-3.044-.626-4.86a12.824,12.824,0,0,0,1.933-.489c6.4-2.207,8.413-22.176,8.413-22.176v-6.333S305.788,480.3,298.32,475.991ZM250.636,630.158l-.313-.166h0Z" transform="translate(-117.91 -222.819)"/><path class="l" d="M312.454,693.457c2.775,7.982-.489,20.937-1.958,26.722a81.1,81.1,0,0,0-1.958,12.725,26.915,26.915,0,0,1-10.18-.235l2.447-11.912c-1.733-7.057,0-25.915,0-25.915a45.29,45.29,0,0,1-4.277-18.4c-.343-10.929-3.034-14.462-3.122-14.575h0c-5.594,2.907-12.632,33.9-12.632,33.9.577,7.517-.117,19.087-2.447,25.337a31.35,31.35,0,0,0-1.737,12.377,3.818,3.818,0,0,1-3.147.6c-3.3-.533-7.263-3.382-7.263-3.382s1.272-33.77,2.2-35.052,0-8.56,0-8.56l1.5-11.8s-.23-20.012,1.958-23.492c1.9-3,2.335-8.266,2.423-9.646v-.343l3.348-4.008s32.395-2.447,34.822,0a6.835,6.835,0,0,1,1.184,3.661c.666,5.247-.1,13.807-.1,13.807s-.979,6.362-2.359,12.837a28.091,28.091,0,0,0,0,11.8A35.231,35.231,0,0,0,312.454,693.457Z" transform="translate(-135.907 -325.071)"/><path class="m" d="M343.861,841.361c-1.444,1.909-9.945,1.1-11.394.489-.886-.367-.817-2.026-.577-3.739.152-1.091.372-2.2.46-3.01a27.559,27.559,0,0,0-.69-6.309s1.909,2.026,2.369,0a2.2,2.2,0,0,1,1.649-1.566,4.324,4.324,0,0,1,3.005.186c1.5.651,4.008,2.041,3.558,3.915-.636,2.658,1.62,6.426,1.62,6.426a2.9,2.9,0,0,1,.421.729A2.775,2.775,0,0,1,343.861,841.361Z" transform="translate(-169.34 -422.247)"/><path class="c" d="M343.938,852.91c-1.444,1.909-9.945,1.1-11.394.489-.886-.367-.817-2.026-.577-3.739a9.8,9.8,0,0,0,5.051.543,14.132,14.132,0,0,1,1.821-.059,41.655,41.655,0,0,0,5.521-.108A2.774,2.774,0,0,1,343.938,852.91Z" transform="translate(-169.417 -433.796)"/><path class="c" d="M288.352,719.694c.577,7.517-.117,19.087-2.447,25.337a31.349,31.349,0,0,0-1.737,12.377,3.818,3.818,0,0,1-3.147.6c.7-4.894,3.671-25.9,5.579-42.511a69.512,69.512,0,0,1,12.319-31.93l2.026,2.227C295.389,688.7,288.352,719.694,288.352,719.694Z" transform="translate(-143.484 -348.993)"/><path class="n" d="M324.9,494.47l-1.414,6.94-6.915,11.629-8.531-3.646s-11.6-12.147-4.312-13.88a6.426,6.426,0,0,0,2.423-1.077,5.019,5.019,0,0,0,1.889-4.185,12.871,12.871,0,0,0-1.184-4.977l14.922-4.684a23.761,23.761,0,0,0-1.072,6.044c-.113,4.062,1.395,6.069,2.633,7.023A4.437,4.437,0,0,0,324.9,494.47Z" transform="translate(-153.852 -245.355)"/><path class="c" d="M327.552,480.59a23.761,23.761,0,0,0-1.072,6.044,11.794,11.794,0,0,1-12.666,3.617,12.871,12.871,0,0,0-1.184-4.977Z" transform="translate(-159.623 -245.355)"/><path class="n" d="M321.99,464.38a11.8,11.8,0,1,1-11.8-11.8h0a11.771,11.771,0,0,1,11.8,11.741Z" transform="translate(-152.353 -231.054)"/><path class="c" d="M324.9,508.1l-1.414,6.94-6.915,11.629-8.531-3.646s-11.6-12.147-4.312-13.88a6.426,6.426,0,0,0,2.423-1.077c-1.317,3.617,4.116,11.139,4.116,11.139.631.93,2.085.347,2.085.347,3.494-.529,9.94-10.591,10.987-12.265A4.436,4.436,0,0,0,324.9,508.1Z" transform="translate(-153.852 -258.988)"/><path class="c" d="M322.079,641.507c-2.056.489-13.42,2.981-17.727,2.354-4.742-.695-13.968-1.155-13.968-1.155s-5.873.313-7.674-.489v-.343l3.348-4.008s32.395-2.447,34.822,0C321.516,638.443,321.859,639.8,322.079,641.507Z" transform="translate(-144.347 -325.102)"/><path class="o" d="M292.365,519.652s-6.1-8.452-3.8-11.746l-10.312,4.229s-6.206-.754-8.442,8.506a16.152,16.152,0,0,0-.387,4.7,13.993,13.993,0,0,1-1.7,7.033c-2.545,5.09-1.958,16.777,3.24,17.932s7.057.578,7.057.578-.7,21.172-3.7,23.6,7.669,1.85,7.669,1.85,9.221.489,13.963,1.16S314,575.049,314,575.049s-1.958-8.907-2.662-14.575-2.31-17.737-2.31-17.737l11.8-15.984s2.08-9.661-5.207-13.939a83.576,83.576,0,0,0-10.033-5.335s-7.341,11.927-11.139,12.5C294.445,519.994,293,520.582,292.365,519.652Z" transform="translate(-135.947 -259.085)"/><path class="c" d="M289.893,539.21s-.113,3.817.582,5.32,3.235,9.832,3.235,9.832h-5.78s3.122-3.352,2.892-4.972S289.893,539.21,289.893,539.21Z" transform="translate(-147.012 -275.286)"/><path class="n" d="M307.7,581.134s-12.774-3.122-13.963-5.78-4.473-8.619-4.473-8.619l1.346-1.816,6.216,4.894s7.4,5.873,10.875,6.48S307.7,581.134,307.7,581.134Z" transform="translate(-147.691 -288.413)"/><path class="p" d="M307.7,581.134s-12.774-3.122-13.963-5.78-4.473-8.619-4.473-8.619l1.346-1.816,6.216,4.894s7.4,5.873,10.875,6.48S307.7,581.134,307.7,581.134Z" transform="translate(-147.691 -288.413)"/><path class="n" d="M325.421,567.264v6.93h-1.116a32.416,32.416,0,0,0-15.73,4.072l-2.085,1.155-.563.313-3.587-8.075,3.357-3.01h.171c.822.078,4.371.372,5.873-.132s3.206-2.026,7.41-.949c2.075.529,3.842,2.853,5.873,2.129Z" transform="translate(-154.369 -289.572)"/><path class="c" d="M346.03,533.36l2.315,2.6v6.3s-1.958,19.9-8.212,22.1-17.4-1.272-17.4-1.272-2.883-7.635-1.537-8.1,11.912-3.25,11.912-3.25-.152-11.673,2.163-15.143c0,0-1.5-10.875,3.7-11.1S346.03,533.36,346.03,533.36Z" transform="translate(-163.814 -268.28)"/><path class="o" d="M346.72,533.36l2.315,2.6v6.3s-1.958,19.9-8.217,22.1-17.394-1.272-17.394-1.272-2.883-7.635-1.537-8.1,11.908-3.25,11.908-3.25-.147-11.673,2.168-15.143c0,0-1.507-10.875,3.7-11.1S346.72,533.36,346.72,533.36Z" transform="translate(-164.167 -268.28)"/><path class="c" d="M321.275,469.373a4.556,4.556,0,0,0-.264-2.251,1.727,1.727,0,0,0-1.83-1.057c-.979.23-1.419,1.517-2.388,1.826a1.9,1.9,0,0,1-2.1-1.082,5.529,5.529,0,0,1-.4-2.516v-2.9a4.781,4.781,0,0,0-.685-3.015c-.808-1.028-2.7-1.468-3.964-1.434a3.364,3.364,0,0,0-2.266.91,2.936,2.936,0,0,1-2.383.852,2.06,2.06,0,0,1-1.659-1.439.131.131,0,0,1,0-.039,11.8,11.8,0,1,1,17.551,15.661A32.693,32.693,0,0,0,321.275,469.373Z" transform="translate(-154.873 -231.035)"/><path class="q" d="M301.787,450.865a2.075,2.075,0,0,1-1.664-1.439c-.093-.372-.069-.773-.181-1.14-.269-.91-1.238-1.385-1.889-2.075a4.653,4.653,0,0,1-.3-5.32c.749-1.341,2.193-2.472,3.7-2.212.935.166,1.742.832,2.692.891a5.463,5.463,0,0,0,2.579-.832,9.71,9.71,0,0,1,6.392-.568,3.7,3.7,0,0,1,1.762.886,15.054,15.054,0,0,1,.94,1.321c1.077,1.375,3.01,1.644,4.728,1.958s3.666.979,4.229,2.648a6.945,6.945,0,0,1-.2,3.426.978.978,0,0,0,.044.71c.269.445.94.259,1.468.362.979.206,1.224,1.468,1.258,2.447q.068,1.7.093,3.426a4.395,4.395,0,0,1-.1,1.268,4.485,4.485,0,0,1-.979,1.591l-3.822,4.591c-1.693,2.036-3.49,4.4-3.152,7.033a1.632,1.632,0,0,1-2.016-1.175,5.186,5.186,0,0,1,.127-2.6,31.976,31.976,0,0,0,.6-4.517,4.57,4.57,0,0,0-.264-2.256A1.733,1.733,0,0,0,316,458.226c-.979.23-1.414,1.517-2.383,1.826a1.89,1.89,0,0,1-2.1-1.082,5.59,5.59,0,0,1-.4-2.516v-2.9a4.781,4.781,0,0,0-.685-3.015c-.8-1.028-2.7-1.468-3.964-1.434a3.364,3.364,0,0,0-2.266.91A2.937,2.937,0,0,1,301.787,450.865Z" transform="translate(-151.678 -223.544)"/><path class="c" d="M312.15,538.62l3.627,14.878S318.63,553.484,312.15,538.62Z" transform="translate(-159.378 -274.984)"/><path class="c" d="M333.984,533.53s-4.747,7.772-2.892,15.8l.881.064S330.4,545.677,333.984,533.53Z" transform="translate(-168.83 -272.385)"/><path class="c" d="M343.59,622.929s5.824-1.928,6.25,2.545C349.84,625.474,348.739,622.405,343.59,622.929Z" transform="translate(-175.431 -317.82)"/><path class="c" d="M298.82,570.88s-1.155,8.1.925,11.34a25.423,25.423,0,0,1-10.18,1.385l-.7-12.725Z" transform="translate(-147.492 -291.456)"/><path class="c" d="M306.49,580.942l-.563.313-3.587-8.075,3.357-3.01h.171C305.815,570.562,304.88,577.516,306.49,580.942Z" transform="translate(-154.369 -291.093)"/><path class="o" d="M295.322,570.17s-1.155,8.1.925,11.34a25.424,25.424,0,0,1-10.18,1.385L282.02,570.17Z" transform="translate(-143.994 -291.093)"/><path class="m" d="M260.137,836.173a2.614,2.614,0,0,1-2.246,2.29c-3.137.49-10.708,1.664-12.617,2.574-2.447,1.16-12.03.348-12.495-.807a1.835,1.835,0,0,1,.166-1.395,3.812,3.812,0,0,1,2.246-1.958c1.811-.607,5.227-1.884,6.147-3.225,0,0,4.258-3.729,5.472-5.741a2.77,2.77,0,0,1,2.227-1.385c1.013-.049,2.139.465,2.6,2.682,0,0,5.55,3.167,7.052.392,0,0,.23,4.263,1.15,5.432h0A1.534,1.534,0,0,1,260.137,836.173Z" transform="translate(-118.818 -421.983)"/><path class="c" d="M260.137,845.035a2.614,2.614,0,0,1-2.246,2.29c-3.137.489-10.708,1.664-12.617,2.574-2.447,1.16-12.03.347-12.495-.807a1.835,1.835,0,0,1,.166-1.395,3.7,3.7,0,0,1,1.551-1.664c1.566,1.038,5.041,2.056,12.686.861,7.292-1.14,10.9-2.256,12.661-3.015h0A1.532,1.532,0,0,1,260.137,845.035Z" transform="translate(-118.818 -430.845)"/><g class="r" transform="translate(145.386 219.808)"><path d="M353.216,456.922a.236.236,0,0,0,0-.059,10.554,10.554,0,0,0,.357-2.623,16.638,16.638,0,0,1-.357,2.1A1.279,1.279,0,0,0,353.216,456.922Z" transform="translate(-325.715 -451.71)"/><path d="M317.811,465.108a3.422,3.422,0,0,1,.284,1.321,3.965,3.965,0,0,0-.284-1.84,1.737,1.737,0,0,0-1.835-1.062c-.979.23-1.414,1.522-2.383,1.83a1.9,1.9,0,0,1-2.1-1.087,5.471,5.471,0,0,1-.4-2.516v-2.9a4.781,4.781,0,0,0-.685-3.015c-.808-1.033-2.7-1.468-3.969-1.439a3.342,3.342,0,0,0-2.261.915,2.936,2.936,0,0,1-2.383.847,2.051,2.051,0,0,1-1.664-1.439c-.1-.372-.069-.768-.181-1.14-.269-.91-1.238-1.38-1.889-2.07a3.805,3.805,0,0,1-.979-2.447,3.959,3.959,0,0,0,.979,2.966c.651.69,1.62,1.165,1.889,2.075.113.367.083.768.181,1.14a2.071,2.071,0,0,0,1.664,1.439,2.936,2.936,0,0,0,2.383-.852,3.393,3.393,0,0,1,2.256-.905,5.34,5.34,0,0,1,3.969,1.439,4.8,4.8,0,0,1,.685,3.015v2.9a5.478,5.478,0,0,0,.4,2.521,1.9,1.9,0,0,0,2.1,1.082c.979-.308,1.395-1.6,2.383-1.83A1.747,1.747,0,0,1,317.811,465.108Z" transform="translate(-297.06 -449.07)"/><path d="M350.551,474.549a4.558,4.558,0,0,1-.979,1.6q-1.918,2.29-3.822,4.586c-1.605,1.933-3.308,4.17-3.186,6.636.117-2.261,1.693-4.317,3.186-6.113l3.822-4.591a4.537,4.537,0,0,0,.979-1.591,4.395,4.395,0,0,0,.1-1.272A3.167,3.167,0,0,1,350.551,474.549Z" transform="translate(-320.29 -461.697)"/><path d="M338.376,499.292a2.745,2.745,0,0,1-.117-.622,3.1,3.1,0,0,0,.117,1.14,1.63,1.63,0,0,0,2.016,1.175c0-.171-.034-.343-.039-.489A1.651,1.651,0,0,1,338.376,499.292Z" transform="translate(-318.09 -474.395)"/></g><path class="c" d="M260,831.47s1.209,2.124,5.594.25" transform="translate(-132.751 -424.508)"/><path class="c" d="M335.65,832.51s3.783,4.449,8.545,1.468" transform="translate(-171.377 -425.039)"/><path class="c" d="M355.246,724.99s-2.672,1.669-2.76,2.623,1.38-.695,1.38-.695Z" transform="translate(-179.971 -370.142)"/><path class="c" d="M355.28,751.13a5.545,5.545,0,0,1-3.289,1.282c-2,.088-1.83,2.692-.524,1.909A32.857,32.857,0,0,0,355.28,751.13Z" transform="translate(-178.952 -383.488)"/><path class="c" d="M358.895,754.54s-1.282,6.294-2.325,5.08" transform="translate(-182.058 -385.229)"/><g class="s" transform="translate(230.599 224.497)"><rect class="t" width="32.302" height="6.852"/><rect class="t" width="32.302" height="6.852" transform="translate(74.171)"/><rect class="t" width="32.302" height="6.852" transform="translate(148.342)"/></g><ellipse class="a" cx="13.18" cy="2.227" rx="13.18" ry="2.227" transform="translate(453.103 389.964)"/><ellipse class="a" cx="13.18" cy="2.227" rx="13.18" ry="2.227" transform="translate(43.211 418.081)"/><ellipse class="u" cx="19.679" cy="3.328" rx="19.679" ry="3.328" transform="translate(417.757 412.727)"/><path class="u" d="M891.424,829.477a5.694,5.694,0,0,0,1.874-2.834,2.514,2.514,0,0,0-1.307-2.883c-1.2-.46-2.491.372-3.47,1.219s-2.09,1.8-3.367,1.625a5.139,5.139,0,0,0,1.586-4.8,2,2,0,0,0-.441-.979c-.67-.715-1.879-.411-2.682.152-2.545,1.791-3.255,5.247-3.269,8.359a15.711,15.711,0,0,1-.044-3.426,3.539,3.539,0,0,0-1.292-3.049,3.918,3.918,0,0,0-1.958-.46,4.067,4.067,0,0,0-3.2.905,3.154,3.154,0,0,0,.122,3.915,12.738,12.738,0,0,0,3.313,2.653,7.41,7.41,0,0,1,2.369,2.256,2.348,2.348,0,0,1,.171.406H887A20.117,20.117,0,0,0,891.424,829.477Z" transform="translate(-445.853 -418.859)"/><path class="h" d="M108.728,791.24s2.692,3.519-1.238,8.81-7.17,9.788-5.873,13.1c0,0,5.932-9.862,10.767-10S114.038,797.172,108.728,791.24Z" transform="translate(-51.736 -403.968)"/><path class="c" d="M108.893,791.24a4.409,4.409,0,0,1,.553,1.106c4.708,5.53,7.214,10.694,2.687,10.821-4.214.122-9.27,7.659-10.483,9.563a4.577,4.577,0,0,0,.142.436s5.932-9.862,10.767-10S114.2,797.172,108.893,791.24Z" transform="translate(-51.901 -403.968)"/><path class="v" d="M126.017,799.564c0,1.238-.137,2.242-.308,2.242s-.308-.979-.308-2.242.171-.656.343-.656S126.017,798.326,126.017,799.564Z" transform="translate(-64.027 -407.808)"/><path class="v" d="M127.959,802.532c-1.087.592-2.036.95-2.114.8s.729-.754,1.816-1.346.661-.161.739,0S129.045,801.94,127.959,802.532Z" transform="translate(-64.251 -409.299)"/><path class="h" d="M81.137,791.24s-2.692,3.519,1.238,8.81,7.17,9.788,5.873,13.1c0,0-5.927-9.862-10.767-10S75.826,797.172,81.137,791.24Z" transform="translate(-38.342 -403.968)"/><path class="c" d="M81.126,791.24a4.409,4.409,0,0,0-.553,1.106c-4.708,5.53-7.214,10.694-2.687,10.821,4.214.122,9.27,7.659,10.483,9.563a3.5,3.5,0,0,1-.147.436s-5.927-9.862-10.767-10S75.815,797.172,81.126,791.24Z" transform="translate(-38.331 -403.968)"/><path class="v" d="M77.22,799.564c0,1.238.142,2.242.313,2.242s.308-.979.308-2.242-.171-.656-.343-.656S77.22,798.326,77.22,799.564Z" transform="translate(-39.427 -407.808)"/><path class="v" d="M73.029,802.532c1.087.592,2.031.95,2.114.8s-.729-.754-1.816-1.346-.661-.161-.744,0S71.943,801.94,73.029,802.532Z" transform="translate(-36.949 -409.299)"/><path class="w" d="M79,830.86s7.517-.235,9.788-1.845,11.565-3.543,12.128-.954,11.3,12.867,2.809,12.935-19.719-1.321-21.98-2.7S79,830.86,79,830.86Z" transform="translate(-40.336 -422.122)"/><path class="x" d="M103.842,844.325c-8.487.069-19.724-1.321-21.985-2.7-1.718-1.052-2.408-4.816-2.633-6.548H78.97s.489,6.059,2.741,7.439,13.493,2.765,21.98,2.7c2.447,0,3.294-.891,3.25-2.183C106.6,843.826,105.663,844.31,103.842,844.325Z" transform="translate(-40.321 -426.352)"/><path class="h" d="M461.752,533.219c0-10,8.139-17.687,18.148-17.687h.142V510.98H479.9c-12.519,0-22.7,9.725-22.7,22.239a22.642,22.642,0,0,0,7.777,17.081l3.225-3.225A18.11,18.11,0,0,1,461.752,533.219Z" transform="translate(-233.438 -260.872)"/><path class="i" d="M489.074,510.99v4.552a18.143,18.143,0,1,1-11.839,31.993L474,550.76a22.69,22.69,0,1,0,15.064-39.77Z" transform="translate(-242.016 -260.877)"/><path class="i" d="M790.981,515.062c10,0,17.688,8.139,17.688,18.148v.142h4.552v-.142c0-12.514-9.725-22.7-22.239-22.7a22.631,22.631,0,0,0-17.081,7.777l3.225,3.225A18.11,18.11,0,0,1,790.981,515.062Z" transform="translate(-395.14 -260.632)"/><path class="h" d="M806.9,542.394h-4.552a18.143,18.143,0,1,1-31.993-11.839l-3.211-3.225a22.69,22.69,0,1,0,39.77,15.064Z" transform="translate(-388.829 -269.22)"/><path class="i" d="M641.868,513.71l-.905,4.532a17.767,17.767,0,0,1,10.919,16.826,18.143,18.143,0,1,1-25.415-16.616l-2.016-4.087a22.689,22.689,0,1,0,32,20.7A22.324,22.324,0,0,0,641.868,513.71Z" transform="translate(-312.001 -262.266)"/><path class="h" d="M648.889,514.992a15.845,15.845,0,0,1,6.318,1.312l.905-4.527a20.018,20.018,0,0,0-7.224-1.336,22.6,22.6,0,0,0-9.3,2l2.036,4.077A17.954,17.954,0,0,1,648.889,514.992Z" transform="translate(-326.563 -260.596)"/></g></svg>